<svg width="818" height="762" viewBox="0 0 818 762" fill="none" xmlns="http://www.w3.org/2000/svg">
<rect width="818" height="762" rx="108" fill="#192942"/>
<path d="M692 185.488H615.349C602.446 175.232 567.718 153 509.045 153C458.133 153 425.24 169.743 409 180.874C392.76 169.743 359.867 153 308.955 153C250.282 153 215.553 175.232 202.651 185.488H126V577.512H326.09V610H359.254V577.512H692V185.488ZM592.508 209.141V480.047H425.582V209.145C435.748 201.519 462.633 185.488 509.045 185.488C555.433 185.488 582.33 201.51 592.508 209.141ZM359.254 192.77C375.851 198.018 386.741 204.888 392.418 209.146V480.047H359.254V192.77ZM225.492 209.142C235.67 201.51 262.567 185.488 308.955 185.488C315.002 185.488 320.7 185.773 326.09 186.264V252.63H258.656V285.118H326.09V317.607H258.656V350.095H326.09V382.583H258.656V415.071H326.09V480.047H225.492V209.142ZM159.164 545.024V217.976H192.328V512.536H326.09V545.024H159.164ZM359.254 512.536H392.418V545.024H359.254V512.536ZM658.836 545.024H425.582V512.536H625.672V217.976H658.836V545.024Z" fill="white"/>
<path d="M458.746 382.583H559.344V415.071H458.746V382.583ZM458.746 317.607H559.344V350.095H458.746V317.607ZM458.746 252.63H559.344V285.118H458.746V252.63Z" fill="white"/>
</svg>
